<mxfile host="app.diagrams.net" modified="2023-09-13T08:14:40.124Z" agent="Mozilla/5.0 (Windows NT 10.0; Win64; x64) AppleWebKit/537.36 (KHTML, like Gecko) Chrome/116.0.0.0 Safari/537.36" etag="YTvz2eQlVMlqrRBk5n5N" version="21.7.4" type="device">
  <diagram name="Page-1" id="1UvbDsuRzjQ0RWcPIdua">
    <mxGraphModel dx="2173" dy="1724" grid="0" gridSize="10" guides="1" tooltips="1" connect="1" arrows="1" fold="1" page="0" pageScale="1" pageWidth="1169" pageHeight="827" math="0" shadow="0">
      <root>
        <mxCell id="0" />
        <mxCell id="1" parent="0" />
        <mxCell id="domzT1zZ1_tL1zmpYCiZ-99" value="1" style="edgeStyle=none;shape=connector;curved=1;rounded=0;orthogonalLoop=1;jettySize=auto;html=1;exitX=0.75;exitY=1;exitDx=0;exitDy=0;labelBackgroundColor=default;strokeColor=default;fontFamily=Helvetica;fontSize=12;fontColor=default;endArrow=none;endFill=0;startSize=8;endSize=8;" edge="1" parent="1" source="2c8IHYr0CZLpdcVPcbY--1" target="domzT1zZ1_tL1zmpYCiZ-98">
          <mxGeometry relative="1" as="geometry" />
        </mxCell>
        <mxCell id="2c8IHYr0CZLpdcVPcbY--1" value="User" style="rounded=0;whiteSpace=wrap;html=1;fontSize=16;" parent="1" vertex="1">
          <mxGeometry x="-710" y="-301" width="120" height="60" as="geometry" />
        </mxCell>
        <mxCell id="2c8IHYr0CZLpdcVPcbY--11" style="edgeStyle=none;curved=1;rounded=0;orthogonalLoop=1;jettySize=auto;html=1;exitX=1;exitY=0.5;exitDx=0;exitDy=0;entryX=0;entryY=0.75;entryDx=0;entryDy=0;fontSize=12;startSize=8;endSize=8;endArrow=none;endFill=0;" parent="1" source="2c8IHYr0CZLpdcVPcbY--2" target="2c8IHYr0CZLpdcVPcbY--1" edge="1">
          <mxGeometry relative="1" as="geometry" />
        </mxCell>
        <mxCell id="2c8IHYr0CZLpdcVPcbY--2" value="&lt;u&gt;&lt;b&gt;user_id&lt;/b&gt;&lt;/u&gt;" style="ellipse;whiteSpace=wrap;html=1;fontSize=16;" parent="1" vertex="1">
          <mxGeometry x="-980" y="-232" width="120" height="80" as="geometry" />
        </mxCell>
        <mxCell id="2c8IHYr0CZLpdcVPcbY--10" style="edgeStyle=none;curved=1;rounded=0;orthogonalLoop=1;jettySize=auto;html=1;exitX=1;exitY=0.5;exitDx=0;exitDy=0;entryX=0;entryY=0.5;entryDx=0;entryDy=0;fontSize=12;startSize=8;endSize=8;endArrow=none;endFill=0;" parent="1" source="2c8IHYr0CZLpdcVPcbY--3" target="2c8IHYr0CZLpdcVPcbY--1" edge="1">
          <mxGeometry relative="1" as="geometry" />
        </mxCell>
        <mxCell id="2c8IHYr0CZLpdcVPcbY--3" value="username" style="ellipse;whiteSpace=wrap;html=1;fontSize=16;" parent="1" vertex="1">
          <mxGeometry x="-924" y="-334" width="120" height="80" as="geometry" />
        </mxCell>
        <mxCell id="2c8IHYr0CZLpdcVPcbY--15" style="edgeStyle=none;shape=connector;curved=1;rounded=0;orthogonalLoop=1;jettySize=auto;html=1;exitX=1;exitY=1;exitDx=0;exitDy=0;entryX=0.362;entryY=0.01;entryDx=0;entryDy=0;entryPerimeter=0;labelBackgroundColor=default;strokeColor=default;fontFamily=Helvetica;fontSize=12;fontColor=default;endArrow=none;endFill=0;startSize=8;endSize=8;" parent="1" source="2c8IHYr0CZLpdcVPcbY--4" target="2c8IHYr0CZLpdcVPcbY--1" edge="1">
          <mxGeometry relative="1" as="geometry" />
        </mxCell>
        <mxCell id="2c8IHYr0CZLpdcVPcbY--4" value="first_name" style="ellipse;whiteSpace=wrap;html=1;fontSize=16;" parent="1" vertex="1">
          <mxGeometry x="-844" y="-412" width="120" height="80" as="geometry" />
        </mxCell>
        <mxCell id="2c8IHYr0CZLpdcVPcbY--16" style="edgeStyle=none;shape=connector;curved=1;rounded=0;orthogonalLoop=1;jettySize=auto;html=1;exitX=0.5;exitY=1;exitDx=0;exitDy=0;labelBackgroundColor=default;strokeColor=default;fontFamily=Helvetica;fontSize=12;fontColor=default;endArrow=none;endFill=0;startSize=8;endSize=8;" parent="1" source="2c8IHYr0CZLpdcVPcbY--5" target="2c8IHYr0CZLpdcVPcbY--1" edge="1">
          <mxGeometry relative="1" as="geometry" />
        </mxCell>
        <mxCell id="2c8IHYr0CZLpdcVPcbY--5" value="last_name" style="ellipse;whiteSpace=wrap;html=1;fontSize=16;" parent="1" vertex="1">
          <mxGeometry x="-558" y="-398" width="120" height="80" as="geometry" />
        </mxCell>
        <mxCell id="2c8IHYr0CZLpdcVPcbY--12" style="edgeStyle=none;shape=connector;curved=1;rounded=0;orthogonalLoop=1;jettySize=auto;html=1;exitX=1;exitY=0;exitDx=0;exitDy=0;entryX=0.448;entryY=1.016;entryDx=0;entryDy=0;entryPerimeter=0;labelBackgroundColor=default;strokeColor=default;fontFamily=Helvetica;fontSize=12;fontColor=default;endArrow=none;endFill=0;startSize=8;endSize=8;" parent="1" source="2c8IHYr0CZLpdcVPcbY--6" target="2c8IHYr0CZLpdcVPcbY--1" edge="1">
          <mxGeometry relative="1" as="geometry" />
        </mxCell>
        <mxCell id="2c8IHYr0CZLpdcVPcbY--6" value="password" style="ellipse;whiteSpace=wrap;html=1;fontSize=16;" parent="1" vertex="1">
          <mxGeometry x="-876" y="-142" width="120" height="80" as="geometry" />
        </mxCell>
        <mxCell id="2c8IHYr0CZLpdcVPcbY--13" style="edgeStyle=none;shape=connector;curved=1;rounded=0;orthogonalLoop=1;jettySize=auto;html=1;exitX=0.5;exitY=0;exitDx=0;exitDy=0;entryX=0.628;entryY=0.988;entryDx=0;entryDy=0;entryPerimeter=0;labelBackgroundColor=default;strokeColor=default;fontFamily=Helvetica;fontSize=12;fontColor=default;endArrow=none;endFill=0;startSize=8;endSize=8;" parent="1" source="2c8IHYr0CZLpdcVPcbY--7" target="2c8IHYr0CZLpdcVPcbY--1" edge="1">
          <mxGeometry relative="1" as="geometry" />
        </mxCell>
        <mxCell id="2c8IHYr0CZLpdcVPcbY--7" value="email" style="ellipse;whiteSpace=wrap;html=1;fontSize=16;" parent="1" vertex="1">
          <mxGeometry x="-736" y="-134" width="120" height="80" as="geometry" />
        </mxCell>
        <mxCell id="2c8IHYr0CZLpdcVPcbY--14" style="edgeStyle=none;shape=connector;curved=1;rounded=0;orthogonalLoop=1;jettySize=auto;html=1;labelBackgroundColor=default;strokeColor=default;fontFamily=Helvetica;fontSize=12;fontColor=default;endArrow=none;endFill=0;startSize=8;endSize=8;" parent="1" source="2c8IHYr0CZLpdcVPcbY--8" target="2c8IHYr0CZLpdcVPcbY--1" edge="1">
          <mxGeometry relative="1" as="geometry" />
        </mxCell>
        <mxCell id="2c8IHYr0CZLpdcVPcbY--8" value="phone_number" style="ellipse;whiteSpace=wrap;html=1;fontSize=16;" parent="1" vertex="1">
          <mxGeometry x="-514" y="-217" width="120" height="80" as="geometry" />
        </mxCell>
        <mxCell id="domzT1zZ1_tL1zmpYCiZ-20" style="edgeStyle=none;curved=1;rounded=0;orthogonalLoop=1;jettySize=auto;html=1;exitX=0;exitY=0.75;exitDx=0;exitDy=0;fontSize=12;startSize=8;endSize=8;endArrow=none;endFill=0;" edge="1" parent="1" source="domzT1zZ1_tL1zmpYCiZ-1" target="domzT1zZ1_tL1zmpYCiZ-17">
          <mxGeometry relative="1" as="geometry" />
        </mxCell>
        <mxCell id="domzT1zZ1_tL1zmpYCiZ-1" value="Issued_return_item" style="rounded=0;whiteSpace=wrap;html=1;fontSize=16;" vertex="1" parent="1">
          <mxGeometry x="-676" y="-802" width="168" height="60" as="geometry" />
        </mxCell>
        <mxCell id="domzT1zZ1_tL1zmpYCiZ-2" style="edgeStyle=none;curved=1;rounded=0;orthogonalLoop=1;jettySize=auto;html=1;exitX=1;exitY=0.5;exitDx=0;exitDy=0;entryX=0;entryY=0.75;entryDx=0;entryDy=0;fontSize=12;startSize=8;endSize=8;endArrow=none;endFill=0;" edge="1" parent="1" source="domzT1zZ1_tL1zmpYCiZ-3" target="domzT1zZ1_tL1zmpYCiZ-1">
          <mxGeometry relative="1" as="geometry" />
        </mxCell>
        <mxCell id="domzT1zZ1_tL1zmpYCiZ-3" value="issued_item_id" style="ellipse;whiteSpace=wrap;html=1;fontSize=16;fontStyle=5" vertex="1" parent="1">
          <mxGeometry x="-950" y="-888" width="145" height="80" as="geometry" />
        </mxCell>
        <mxCell id="domzT1zZ1_tL1zmpYCiZ-8" style="edgeStyle=none;shape=connector;curved=1;rounded=0;orthogonalLoop=1;jettySize=auto;html=1;exitX=0.5;exitY=1;exitDx=0;exitDy=0;labelBackgroundColor=default;strokeColor=default;fontFamily=Helvetica;fontSize=12;fontColor=default;endArrow=none;endFill=0;startSize=8;endSize=8;" edge="1" parent="1" source="domzT1zZ1_tL1zmpYCiZ-9" target="domzT1zZ1_tL1zmpYCiZ-1">
          <mxGeometry relative="1" as="geometry" />
        </mxCell>
        <mxCell id="domzT1zZ1_tL1zmpYCiZ-9" value="quantity" style="ellipse;whiteSpace=wrap;html=1;fontSize=16;" vertex="1" parent="1">
          <mxGeometry x="-682" y="-960" width="120" height="80" as="geometry" />
        </mxCell>
        <mxCell id="domzT1zZ1_tL1zmpYCiZ-23" style="edgeStyle=none;shape=connector;curved=1;rounded=0;orthogonalLoop=1;jettySize=auto;html=1;exitX=0.5;exitY=0;exitDx=0;exitDy=0;labelBackgroundColor=default;strokeColor=default;fontFamily=Helvetica;fontSize=12;fontColor=default;endArrow=none;endFill=0;startSize=8;endSize=8;" edge="1" parent="1" source="domzT1zZ1_tL1zmpYCiZ-16" target="domzT1zZ1_tL1zmpYCiZ-1">
          <mxGeometry relative="1" as="geometry">
            <mxPoint x="-472.52631578947376" y="-717.5" as="targetPoint" />
          </mxGeometry>
        </mxCell>
        <mxCell id="domzT1zZ1_tL1zmpYCiZ-16" value="timestamp" style="ellipse;whiteSpace=wrap;html=1;fontSize=16;" vertex="1" parent="1">
          <mxGeometry x="-809" y="-964" width="120" height="80" as="geometry" />
        </mxCell>
        <mxCell id="domzT1zZ1_tL1zmpYCiZ-17" value="remark" style="ellipse;whiteSpace=wrap;html=1;fontSize=16;" vertex="1" parent="1">
          <mxGeometry x="-975" y="-804" width="120" height="80" as="geometry" />
        </mxCell>
        <mxCell id="domzT1zZ1_tL1zmpYCiZ-22" style="edgeStyle=none;shape=connector;curved=1;rounded=0;orthogonalLoop=1;jettySize=auto;html=1;exitX=0.5;exitY=0;exitDx=0;exitDy=0;labelBackgroundColor=default;strokeColor=default;fontFamily=Helvetica;fontSize=12;fontColor=default;endArrow=none;endFill=0;startSize=8;endSize=8;entryX=0.25;entryY=1;entryDx=0;entryDy=0;" edge="1" parent="1" source="domzT1zZ1_tL1zmpYCiZ-19" target="domzT1zZ1_tL1zmpYCiZ-1">
          <mxGeometry relative="1" as="geometry">
            <mxPoint x="-511.2105263157896" y="-717.5" as="targetPoint" />
          </mxGeometry>
        </mxCell>
        <mxCell id="domzT1zZ1_tL1zmpYCiZ-19" value="state" style="ellipse;whiteSpace=wrap;html=1;fontSize=16;" vertex="1" parent="1">
          <mxGeometry x="-874" y="-667" width="120" height="80" as="geometry" />
        </mxCell>
        <mxCell id="domzT1zZ1_tL1zmpYCiZ-92" style="edgeStyle=none;shape=connector;curved=1;rounded=0;orthogonalLoop=1;jettySize=auto;html=1;exitX=0.5;exitY=1;exitDx=0;exitDy=0;entryX=0.331;entryY=0.006;entryDx=0;entryDy=0;entryPerimeter=0;labelBackgroundColor=default;strokeColor=default;fontFamily=Helvetica;fontSize=12;fontColor=default;endArrow=none;endFill=0;startSize=8;endSize=8;" edge="1" parent="1" source="domzT1zZ1_tL1zmpYCiZ-27" target="domzT1zZ1_tL1zmpYCiZ-91">
          <mxGeometry relative="1" as="geometry" />
        </mxCell>
        <mxCell id="domzT1zZ1_tL1zmpYCiZ-102" style="edgeStyle=none;shape=connector;curved=1;rounded=0;orthogonalLoop=1;jettySize=auto;html=1;exitX=0.75;exitY=0;exitDx=0;exitDy=0;entryX=0;entryY=0.5;entryDx=0;entryDy=0;labelBackgroundColor=default;strokeColor=default;fontFamily=Helvetica;fontSize=12;fontColor=default;endArrow=none;endFill=0;startSize=8;endSize=8;" edge="1" parent="1" source="domzT1zZ1_tL1zmpYCiZ-27" target="domzT1zZ1_tL1zmpYCiZ-101">
          <mxGeometry relative="1" as="geometry" />
        </mxCell>
        <mxCell id="domzT1zZ1_tL1zmpYCiZ-137" value="M" style="edgeLabel;html=1;align=center;verticalAlign=middle;resizable=0;points=[];fontSize=12;fontFamily=Helvetica;fontColor=default;" vertex="1" connectable="0" parent="domzT1zZ1_tL1zmpYCiZ-102">
          <mxGeometry x="-0.0194" y="5" relative="1" as="geometry">
            <mxPoint as="offset" />
          </mxGeometry>
        </mxCell>
        <mxCell id="domzT1zZ1_tL1zmpYCiZ-206" value="1" style="edgeStyle=none;shape=connector;curved=1;rounded=0;orthogonalLoop=1;jettySize=auto;html=1;exitX=0.5;exitY=0;exitDx=0;exitDy=0;entryX=0.5;entryY=1;entryDx=0;entryDy=0;labelBackgroundColor=default;strokeColor=default;fontFamily=Helvetica;fontSize=12;fontColor=default;endArrow=none;endFill=0;" edge="1" parent="1" source="domzT1zZ1_tL1zmpYCiZ-27" target="domzT1zZ1_tL1zmpYCiZ-205">
          <mxGeometry relative="1" as="geometry" />
        </mxCell>
        <mxCell id="domzT1zZ1_tL1zmpYCiZ-27" value="Item" style="rounded=0;whiteSpace=wrap;html=1;fontFamily=Helvetica;fontSize=12;fontColor=default;" vertex="1" parent="1">
          <mxGeometry x="-641" y="332.5" width="120" height="60" as="geometry" />
        </mxCell>
        <mxCell id="domzT1zZ1_tL1zmpYCiZ-32" style="edgeStyle=none;shape=connector;curved=1;rounded=0;orthogonalLoop=1;jettySize=auto;html=1;exitX=1;exitY=1;exitDx=0;exitDy=0;labelBackgroundColor=default;strokeColor=default;fontFamily=Helvetica;fontSize=12;fontColor=default;endArrow=none;endFill=0;startSize=8;endSize=8;" edge="1" parent="1" source="domzT1zZ1_tL1zmpYCiZ-28">
          <mxGeometry relative="1" as="geometry">
            <mxPoint x="-643.7718658447266" y="363.22122383117676" as="targetPoint" />
          </mxGeometry>
        </mxCell>
        <mxCell id="domzT1zZ1_tL1zmpYCiZ-28" value="item_id" style="ellipse;whiteSpace=wrap;html=1;fontSize=16;fontStyle=5" vertex="1" parent="1">
          <mxGeometry x="-874" y="306" width="120" height="80" as="geometry" />
        </mxCell>
        <mxCell id="domzT1zZ1_tL1zmpYCiZ-33" style="edgeStyle=none;shape=connector;curved=1;rounded=0;orthogonalLoop=1;jettySize=auto;html=1;exitX=1;exitY=1;exitDx=0;exitDy=0;labelBackgroundColor=default;strokeColor=default;fontFamily=Helvetica;fontSize=12;fontColor=default;endArrow=none;endFill=0;startSize=8;endSize=8;" edge="1" parent="1" source="domzT1zZ1_tL1zmpYCiZ-29" target="domzT1zZ1_tL1zmpYCiZ-27">
          <mxGeometry relative="1" as="geometry" />
        </mxCell>
        <mxCell id="domzT1zZ1_tL1zmpYCiZ-29" value="item_name" style="ellipse;whiteSpace=wrap;html=1;fontSize=16;" vertex="1" parent="1">
          <mxGeometry x="-784" y="460" width="120" height="80" as="geometry" />
        </mxCell>
        <mxCell id="domzT1zZ1_tL1zmpYCiZ-34" value="" style="edgeStyle=none;shape=connector;curved=1;rounded=0;orthogonalLoop=1;jettySize=auto;html=1;labelBackgroundColor=default;strokeColor=default;fontFamily=Helvetica;fontSize=12;fontColor=default;endArrow=none;endFill=0;startSize=8;endSize=8;" edge="1" parent="1" source="domzT1zZ1_tL1zmpYCiZ-30" target="domzT1zZ1_tL1zmpYCiZ-27">
          <mxGeometry relative="1" as="geometry" />
        </mxCell>
        <mxCell id="domzT1zZ1_tL1zmpYCiZ-30" value="subcategory_id" style="ellipse;whiteSpace=wrap;html=1;fontSize=16;" vertex="1" parent="1">
          <mxGeometry x="-414" y="490" width="120" height="80" as="geometry" />
        </mxCell>
        <mxCell id="domzT1zZ1_tL1zmpYCiZ-35" style="edgeStyle=none;shape=connector;curved=1;rounded=0;orthogonalLoop=1;jettySize=auto;html=1;exitX=0;exitY=0.5;exitDx=0;exitDy=0;entryX=1;entryY=0.25;entryDx=0;entryDy=0;labelBackgroundColor=default;strokeColor=default;fontFamily=Helvetica;fontSize=12;fontColor=default;endArrow=none;endFill=0;startSize=8;endSize=8;" edge="1" parent="1" source="domzT1zZ1_tL1zmpYCiZ-31" target="domzT1zZ1_tL1zmpYCiZ-27">
          <mxGeometry relative="1" as="geometry" />
        </mxCell>
        <mxCell id="domzT1zZ1_tL1zmpYCiZ-31" value="items_remaining" style="ellipse;whiteSpace=wrap;html=1;fontSize=16;" vertex="1" parent="1">
          <mxGeometry x="-398" y="362" width="120" height="80" as="geometry" />
        </mxCell>
        <mxCell id="domzT1zZ1_tL1zmpYCiZ-108" value="1" style="edgeStyle=none;shape=connector;curved=1;rounded=0;orthogonalLoop=1;jettySize=auto;html=1;entryX=1;entryY=0.5;entryDx=0;entryDy=0;labelBackgroundColor=default;strokeColor=default;fontFamily=Helvetica;fontSize=12;fontColor=default;endArrow=none;endFill=0;startSize=8;endSize=8;" edge="1" parent="1" source="domzT1zZ1_tL1zmpYCiZ-36" target="domzT1zZ1_tL1zmpYCiZ-107">
          <mxGeometry relative="1" as="geometry" />
        </mxCell>
        <mxCell id="domzT1zZ1_tL1zmpYCiZ-36" value="Brand" style="rounded=0;whiteSpace=wrap;html=1;fontFamily=Helvetica;fontSize=12;fontColor=default;" vertex="1" parent="1">
          <mxGeometry x="137" y="341.5" width="117" height="60" as="geometry" />
        </mxCell>
        <mxCell id="domzT1zZ1_tL1zmpYCiZ-37" style="edgeStyle=none;shape=connector;curved=1;rounded=0;orthogonalLoop=1;jettySize=auto;html=1;exitX=1;exitY=1;exitDx=0;exitDy=0;labelBackgroundColor=default;strokeColor=default;fontFamily=Helvetica;fontSize=12;fontColor=default;endArrow=none;endFill=0;startSize=8;endSize=8;entryX=0.5;entryY=0;entryDx=0;entryDy=0;" edge="1" parent="1" source="domzT1zZ1_tL1zmpYCiZ-38" target="domzT1zZ1_tL1zmpYCiZ-36">
          <mxGeometry relative="1" as="geometry">
            <mxPoint x="131.22813415527344" y="372.22122383117676" as="targetPoint" />
          </mxGeometry>
        </mxCell>
        <mxCell id="domzT1zZ1_tL1zmpYCiZ-38" value="brand_id" style="ellipse;whiteSpace=wrap;html=1;fontSize=16;fontStyle=5" vertex="1" parent="1">
          <mxGeometry x="113" y="207" width="120" height="80" as="geometry" />
        </mxCell>
        <mxCell id="domzT1zZ1_tL1zmpYCiZ-39" style="edgeStyle=none;shape=connector;curved=1;rounded=0;orthogonalLoop=1;jettySize=auto;html=1;exitX=0.311;exitY=0.999;exitDx=0;exitDy=0;labelBackgroundColor=default;strokeColor=default;fontFamily=Helvetica;fontSize=12;fontColor=default;endArrow=none;endFill=0;startSize=8;endSize=8;exitPerimeter=0;" edge="1" parent="1" source="domzT1zZ1_tL1zmpYCiZ-40" target="domzT1zZ1_tL1zmpYCiZ-36">
          <mxGeometry relative="1" as="geometry" />
        </mxCell>
        <mxCell id="domzT1zZ1_tL1zmpYCiZ-40" value="brand_name" style="ellipse;whiteSpace=wrap;html=1;fontSize=16;" vertex="1" parent="1">
          <mxGeometry x="281" y="223" width="120" height="80" as="geometry" />
        </mxCell>
        <mxCell id="domzT1zZ1_tL1zmpYCiZ-57" style="edgeStyle=none;shape=connector;curved=1;rounded=0;orthogonalLoop=1;jettySize=auto;html=1;exitX=0.5;exitY=1;exitDx=0;exitDy=0;entryX=0.5;entryY=0;entryDx=0;entryDy=0;labelBackgroundColor=default;strokeColor=default;fontFamily=Helvetica;fontSize=12;fontColor=default;endArrow=none;endFill=0;startSize=8;endSize=8;" edge="1" parent="1" source="domzT1zZ1_tL1zmpYCiZ-45" target="domzT1zZ1_tL1zmpYCiZ-56">
          <mxGeometry relative="1" as="geometry" />
        </mxCell>
        <mxCell id="domzT1zZ1_tL1zmpYCiZ-58" style="edgeStyle=none;shape=connector;curved=1;rounded=0;orthogonalLoop=1;jettySize=auto;html=1;exitX=1;exitY=0.5;exitDx=0;exitDy=0;entryX=0.071;entryY=0.273;entryDx=0;entryDy=0;entryPerimeter=0;labelBackgroundColor=default;strokeColor=default;fontFamily=Helvetica;fontSize=12;fontColor=default;endArrow=none;endFill=0;startSize=8;endSize=8;" edge="1" parent="1" source="domzT1zZ1_tL1zmpYCiZ-45" target="domzT1zZ1_tL1zmpYCiZ-55">
          <mxGeometry relative="1" as="geometry" />
        </mxCell>
        <mxCell id="domzT1zZ1_tL1zmpYCiZ-182" style="edgeStyle=none;shape=connector;curved=1;rounded=0;orthogonalLoop=1;jettySize=auto;html=1;exitX=0.75;exitY=1;exitDx=0;exitDy=0;entryX=0.097;entryY=0.223;entryDx=0;entryDy=0;entryPerimeter=0;labelBackgroundColor=default;strokeColor=default;fontFamily=Helvetica;fontSize=12;fontColor=default;endArrow=none;endFill=0;startSize=8;endSize=8;" edge="1" parent="1" source="domzT1zZ1_tL1zmpYCiZ-45" target="domzT1zZ1_tL1zmpYCiZ-181">
          <mxGeometry relative="1" as="geometry" />
        </mxCell>
        <mxCell id="domzT1zZ1_tL1zmpYCiZ-45" value="Supplier" style="rounded=0;whiteSpace=wrap;html=1;fontFamily=Helvetica;fontSize=12;fontColor=default;" vertex="1" parent="1">
          <mxGeometry x="866" y="318.5" width="120" height="60" as="geometry" />
        </mxCell>
        <mxCell id="domzT1zZ1_tL1zmpYCiZ-46" style="edgeStyle=none;shape=connector;curved=1;rounded=0;orthogonalLoop=1;jettySize=auto;html=1;exitX=1;exitY=1;exitDx=0;exitDy=0;labelBackgroundColor=default;strokeColor=default;fontFamily=Helvetica;fontSize=12;fontColor=default;endArrow=none;endFill=0;startSize=8;endSize=8;entryX=0.5;entryY=0;entryDx=0;entryDy=0;" edge="1" parent="1" source="domzT1zZ1_tL1zmpYCiZ-47" target="domzT1zZ1_tL1zmpYCiZ-45">
          <mxGeometry relative="1" as="geometry">
            <mxPoint x="863.2281341552734" y="349.22122383117676" as="targetPoint" />
          </mxGeometry>
        </mxCell>
        <mxCell id="domzT1zZ1_tL1zmpYCiZ-47" value="supplier_id" style="ellipse;whiteSpace=wrap;html=1;fontSize=16;fontStyle=5" vertex="1" parent="1">
          <mxGeometry x="845" y="184" width="120" height="80" as="geometry" />
        </mxCell>
        <mxCell id="domzT1zZ1_tL1zmpYCiZ-48" style="edgeStyle=none;shape=connector;curved=1;rounded=0;orthogonalLoop=1;jettySize=auto;html=1;exitX=1;exitY=1;exitDx=0;exitDy=0;labelBackgroundColor=default;strokeColor=default;fontFamily=Helvetica;fontSize=12;fontColor=default;endArrow=none;endFill=0;startSize=8;endSize=8;" edge="1" parent="1" source="domzT1zZ1_tL1zmpYCiZ-49" target="domzT1zZ1_tL1zmpYCiZ-45">
          <mxGeometry relative="1" as="geometry" />
        </mxCell>
        <mxCell id="domzT1zZ1_tL1zmpYCiZ-49" value="supplier_name" style="ellipse;whiteSpace=wrap;html=1;fontSize=16;" vertex="1" parent="1">
          <mxGeometry x="1013" y="200" width="120" height="80" as="geometry" />
        </mxCell>
        <mxCell id="domzT1zZ1_tL1zmpYCiZ-55" value="supplier_phone" style="ellipse;whiteSpace=wrap;html=1;fontSize=16;" vertex="1" parent="1">
          <mxGeometry x="1019" y="343" width="120" height="80" as="geometry" />
        </mxCell>
        <mxCell id="domzT1zZ1_tL1zmpYCiZ-56" value="supplier_address" style="ellipse;whiteSpace=wrap;html=1;fontSize=16;" vertex="1" parent="1">
          <mxGeometry x="872" y="414" width="120" height="80" as="geometry" />
        </mxCell>
        <mxCell id="domzT1zZ1_tL1zmpYCiZ-81" value="Category" style="rounded=0;whiteSpace=wrap;html=1;fontFamily=Helvetica;fontSize=12;fontColor=default;" vertex="1" parent="1">
          <mxGeometry x="82" y="-82" width="120" height="60" as="geometry" />
        </mxCell>
        <mxCell id="domzT1zZ1_tL1zmpYCiZ-82" style="edgeStyle=none;shape=connector;curved=1;rounded=0;orthogonalLoop=1;jettySize=auto;html=1;exitX=1;exitY=1;exitDx=0;exitDy=0;labelBackgroundColor=default;strokeColor=default;fontFamily=Helvetica;fontSize=12;fontColor=default;endArrow=none;endFill=0;startSize=8;endSize=8;" edge="1" parent="1" source="domzT1zZ1_tL1zmpYCiZ-83" target="domzT1zZ1_tL1zmpYCiZ-81">
          <mxGeometry relative="1" as="geometry">
            <mxPoint x="79.22813415527344" y="-51.27877616882324" as="targetPoint" />
          </mxGeometry>
        </mxCell>
        <mxCell id="domzT1zZ1_tL1zmpYCiZ-83" value="category_id" style="ellipse;whiteSpace=wrap;html=1;fontSize=16;fontStyle=5" vertex="1" parent="1">
          <mxGeometry x="-239" y="-201" width="172" height="80" as="geometry" />
        </mxCell>
        <mxCell id="domzT1zZ1_tL1zmpYCiZ-84" style="edgeStyle=none;shape=connector;curved=1;rounded=0;orthogonalLoop=1;jettySize=auto;html=1;exitX=1;exitY=1;exitDx=0;exitDy=0;labelBackgroundColor=default;strokeColor=default;fontFamily=Helvetica;fontSize=12;fontColor=default;endArrow=none;endFill=0;startSize=8;endSize=8;" edge="1" parent="1" source="domzT1zZ1_tL1zmpYCiZ-85" target="domzT1zZ1_tL1zmpYCiZ-81">
          <mxGeometry relative="1" as="geometry" />
        </mxCell>
        <mxCell id="domzT1zZ1_tL1zmpYCiZ-85" value="category_name" style="ellipse;whiteSpace=wrap;html=1;fontSize=16;" vertex="1" parent="1">
          <mxGeometry x="-43" y="-224" width="151" height="80" as="geometry" />
        </mxCell>
        <mxCell id="domzT1zZ1_tL1zmpYCiZ-91" value="damaged" style="ellipse;whiteSpace=wrap;html=1;fontSize=16;" vertex="1" parent="1">
          <mxGeometry x="-602" y="445" width="120" height="80" as="geometry" />
        </mxCell>
        <mxCell id="domzT1zZ1_tL1zmpYCiZ-93" value="department" style="rounded=0;whiteSpace=wrap;html=1;fontFamily=Helvetica;fontSize=12;fontColor=default;" vertex="1" parent="1">
          <mxGeometry x="88" y="-786.5" width="120" height="60" as="geometry" />
        </mxCell>
        <mxCell id="domzT1zZ1_tL1zmpYCiZ-94" style="edgeStyle=none;shape=connector;curved=1;rounded=0;orthogonalLoop=1;jettySize=auto;html=1;exitX=1;exitY=1;exitDx=0;exitDy=0;labelBackgroundColor=default;strokeColor=default;fontFamily=Helvetica;fontSize=12;fontColor=default;endArrow=none;endFill=0;startSize=8;endSize=8;entryX=0.5;entryY=0;entryDx=0;entryDy=0;" edge="1" parent="1" source="domzT1zZ1_tL1zmpYCiZ-95" target="domzT1zZ1_tL1zmpYCiZ-93">
          <mxGeometry relative="1" as="geometry">
            <mxPoint x="85.22813415527344" y="-755.7787761688232" as="targetPoint" />
          </mxGeometry>
        </mxCell>
        <mxCell id="domzT1zZ1_tL1zmpYCiZ-95" value="department_id" style="ellipse;whiteSpace=wrap;html=1;fontSize=16;fontStyle=5" vertex="1" parent="1">
          <mxGeometry x="67" y="-921" width="120" height="80" as="geometry" />
        </mxCell>
        <mxCell id="domzT1zZ1_tL1zmpYCiZ-96" style="edgeStyle=none;shape=connector;curved=1;rounded=0;orthogonalLoop=1;jettySize=auto;html=1;exitX=0.311;exitY=0.999;exitDx=0;exitDy=0;labelBackgroundColor=default;strokeColor=default;fontFamily=Helvetica;fontSize=12;fontColor=default;endArrow=none;endFill=0;startSize=8;endSize=8;exitPerimeter=0;" edge="1" parent="1" source="domzT1zZ1_tL1zmpYCiZ-97" target="domzT1zZ1_tL1zmpYCiZ-93">
          <mxGeometry relative="1" as="geometry" />
        </mxCell>
        <mxCell id="domzT1zZ1_tL1zmpYCiZ-97" value="department_name" style="ellipse;whiteSpace=wrap;html=1;fontSize=16;" vertex="1" parent="1">
          <mxGeometry x="235" y="-905" width="192" height="80" as="geometry" />
        </mxCell>
        <mxCell id="domzT1zZ1_tL1zmpYCiZ-100" value="N" style="edgeStyle=none;shape=connector;curved=1;rounded=0;orthogonalLoop=1;jettySize=auto;html=1;exitX=0.5;exitY=1;exitDx=0;exitDy=0;entryX=0.5;entryY=0;entryDx=0;entryDy=0;labelBackgroundColor=default;strokeColor=default;fontFamily=Helvetica;fontSize=12;fontColor=default;endArrow=none;endFill=0;startSize=8;endSize=8;" edge="1" parent="1" source="domzT1zZ1_tL1zmpYCiZ-98" target="domzT1zZ1_tL1zmpYCiZ-27">
          <mxGeometry relative="1" as="geometry" />
        </mxCell>
        <mxCell id="domzT1zZ1_tL1zmpYCiZ-98" value="issues" style="rhombus;whiteSpace=wrap;html=1;fontFamily=Helvetica;fontSize=12;fontColor=default;" vertex="1" parent="1">
          <mxGeometry x="-614" y="15" width="80" height="80" as="geometry" />
        </mxCell>
        <mxCell id="domzT1zZ1_tL1zmpYCiZ-101" value="has" style="rhombus;whiteSpace=wrap;html=1;fontFamily=Helvetica;fontSize=12;fontColor=default;" vertex="1" parent="1">
          <mxGeometry x="-289" y="51" width="80" height="80" as="geometry" />
        </mxCell>
        <mxCell id="domzT1zZ1_tL1zmpYCiZ-128" value="1" style="edgeStyle=none;shape=connector;curved=1;rounded=0;orthogonalLoop=1;jettySize=auto;html=1;entryX=0;entryY=0.75;entryDx=0;entryDy=0;labelBackgroundColor=default;strokeColor=default;fontFamily=Helvetica;fontSize=12;fontColor=default;endArrow=none;endFill=0;startSize=8;endSize=8;" edge="1" parent="1" source="domzT1zZ1_tL1zmpYCiZ-101" target="domzT1zZ1_tL1zmpYCiZ-81">
          <mxGeometry relative="1" as="geometry">
            <mxPoint x="400.9074074074074" y="-99.90740740740739" as="sourcePoint" />
          </mxGeometry>
        </mxCell>
        <mxCell id="domzT1zZ1_tL1zmpYCiZ-109" value="M" style="edgeStyle=none;shape=connector;curved=1;rounded=0;orthogonalLoop=1;jettySize=auto;html=1;entryX=1;entryY=0;entryDx=0;entryDy=0;labelBackgroundColor=default;strokeColor=default;fontFamily=Helvetica;fontSize=12;fontColor=default;endArrow=none;endFill=0;startSize=8;endSize=8;" edge="1" parent="1" source="domzT1zZ1_tL1zmpYCiZ-107" target="domzT1zZ1_tL1zmpYCiZ-27">
          <mxGeometry relative="1" as="geometry" />
        </mxCell>
        <mxCell id="domzT1zZ1_tL1zmpYCiZ-107" value="has" style="rhombus;whiteSpace=wrap;html=1;fontFamily=Helvetica;fontSize=12;fontColor=default;" vertex="1" parent="1">
          <mxGeometry x="-173" y="331.5" width="80" height="80" as="geometry" />
        </mxCell>
        <mxCell id="domzT1zZ1_tL1zmpYCiZ-131" value="M" style="edgeStyle=none;shape=connector;curved=1;rounded=0;orthogonalLoop=1;jettySize=auto;html=1;entryX=0;entryY=0.75;entryDx=0;entryDy=0;labelBackgroundColor=default;strokeColor=default;fontFamily=Helvetica;fontSize=12;fontColor=default;endArrow=none;endFill=0;startSize=8;endSize=8;" edge="1" parent="1" source="domzT1zZ1_tL1zmpYCiZ-112" target="domzT1zZ1_tL1zmpYCiZ-45">
          <mxGeometry relative="1" as="geometry" />
        </mxCell>
        <mxCell id="domzT1zZ1_tL1zmpYCiZ-132" value="N" style="edgeStyle=none;shape=connector;curved=1;rounded=0;orthogonalLoop=1;jettySize=auto;html=1;labelBackgroundColor=default;strokeColor=default;fontFamily=Helvetica;fontSize=12;fontColor=default;endArrow=none;endFill=0;startSize=8;endSize=8;entryX=1;entryY=0.5;entryDx=0;entryDy=0;" edge="1" parent="1" source="domzT1zZ1_tL1zmpYCiZ-112" target="domzT1zZ1_tL1zmpYCiZ-36">
          <mxGeometry relative="1" as="geometry">
            <mxPoint x="741.9402460456945" y="350.25" as="targetPoint" />
          </mxGeometry>
        </mxCell>
        <mxCell id="domzT1zZ1_tL1zmpYCiZ-112" value="has" style="rhombus;whiteSpace=wrap;html=1;fontFamily=Helvetica;fontSize=12;fontColor=default;" vertex="1" parent="1">
          <mxGeometry x="522" y="331.5" width="80" height="80" as="geometry" />
        </mxCell>
        <mxCell id="domzT1zZ1_tL1zmpYCiZ-114" style="edgeStyle=none;shape=connector;curved=1;rounded=0;orthogonalLoop=1;jettySize=auto;html=1;entryX=1;entryY=0.25;entryDx=0;entryDy=0;labelBackgroundColor=default;strokeColor=default;fontFamily=Helvetica;fontSize=12;fontColor=default;endArrow=none;endFill=0;startSize=8;endSize=8;" edge="1" parent="1" source="domzT1zZ1_tL1zmpYCiZ-36" target="domzT1zZ1_tL1zmpYCiZ-36">
          <mxGeometry relative="1" as="geometry" />
        </mxCell>
        <mxCell id="domzT1zZ1_tL1zmpYCiZ-123" value="1" style="edgeStyle=none;shape=connector;curved=1;rounded=0;orthogonalLoop=1;jettySize=auto;html=1;entryX=0;entryY=0.5;entryDx=0;entryDy=0;labelBackgroundColor=default;strokeColor=default;fontFamily=Helvetica;fontSize=12;fontColor=default;endArrow=none;endFill=0;startSize=8;endSize=8;" edge="1" parent="1" source="domzT1zZ1_tL1zmpYCiZ-122" target="domzT1zZ1_tL1zmpYCiZ-93">
          <mxGeometry relative="1" as="geometry" />
        </mxCell>
        <mxCell id="domzT1zZ1_tL1zmpYCiZ-124" value="M" style="edgeStyle=none;shape=connector;curved=1;rounded=0;orthogonalLoop=1;jettySize=auto;html=1;entryX=1;entryY=0.75;entryDx=0;entryDy=0;labelBackgroundColor=default;strokeColor=default;fontFamily=Helvetica;fontSize=12;fontColor=default;endArrow=none;endFill=0;startSize=8;endSize=8;" edge="1" parent="1" source="domzT1zZ1_tL1zmpYCiZ-122" target="domzT1zZ1_tL1zmpYCiZ-1">
          <mxGeometry relative="1" as="geometry" />
        </mxCell>
        <mxCell id="domzT1zZ1_tL1zmpYCiZ-122" value="has" style="rhombus;whiteSpace=wrap;html=1;fontFamily=Helvetica;fontSize=12;fontColor=default;" vertex="1" parent="1">
          <mxGeometry x="-294" y="-796.5" width="80" height="80" as="geometry" />
        </mxCell>
        <mxCell id="domzT1zZ1_tL1zmpYCiZ-126" value="M" style="edgeStyle=none;shape=connector;curved=1;rounded=0;orthogonalLoop=1;jettySize=auto;html=1;labelBackgroundColor=default;strokeColor=default;fontFamily=Helvetica;fontSize=12;fontColor=default;endArrow=none;endFill=0;startSize=8;endSize=8;" edge="1" parent="1" source="domzT1zZ1_tL1zmpYCiZ-125">
          <mxGeometry relative="1" as="geometry">
            <mxPoint x="-615.2661336263018" y="-739.0516993204751" as="targetPoint" />
          </mxGeometry>
        </mxCell>
        <mxCell id="domzT1zZ1_tL1zmpYCiZ-127" value="1" style="edgeStyle=none;shape=connector;curved=1;rounded=0;orthogonalLoop=1;jettySize=auto;html=1;entryX=0.75;entryY=0;entryDx=0;entryDy=0;labelBackgroundColor=default;strokeColor=default;fontFamily=Helvetica;fontSize=12;fontColor=default;endArrow=none;endFill=0;startSize=8;endSize=8;" edge="1" parent="1" source="domzT1zZ1_tL1zmpYCiZ-125" target="2c8IHYr0CZLpdcVPcbY--1">
          <mxGeometry relative="1" as="geometry" />
        </mxCell>
        <mxCell id="domzT1zZ1_tL1zmpYCiZ-125" value="issues" style="rhombus;whiteSpace=wrap;html=1;fontFamily=Helvetica;fontSize=12;fontColor=default;" vertex="1" parent="1">
          <mxGeometry x="-656" y="-592" width="80" height="80" as="geometry" />
        </mxCell>
        <mxCell id="domzT1zZ1_tL1zmpYCiZ-160" value="Issued_return_item" style="text;strokeColor=none;align=center;fillColor=none;html=1;verticalAlign=middle;whiteSpace=wrap;rounded=0;fontSize=12;fontFamily=Helvetica;fontColor=default;" vertex="1" parent="1">
          <mxGeometry x="-745.9971765136719" y="813.9985918719951" width="60" height="30" as="geometry" />
        </mxCell>
        <mxCell id="domzT1zZ1_tL1zmpYCiZ-161" value="Issued_return_item_id" style="text;strokeColor=none;align=center;fillColor=none;html=1;verticalAlign=middle;whiteSpace=wrap;rounded=0;fontSize=12;fontFamily=Helvetica;fontColor=default;fontStyle=5" vertex="1" parent="1">
          <mxGeometry x="-628.5400000000001" y="813.9985918719951" width="101.68" height="30" as="geometry" />
        </mxCell>
        <mxCell id="domzT1zZ1_tL1zmpYCiZ-162" value="remark" style="text;strokeColor=none;align=center;fillColor=none;html=1;verticalAlign=middle;whiteSpace=wrap;rounded=0;fontSize=12;fontFamily=Helvetica;fontColor=default;" vertex="1" parent="1">
          <mxGeometry x="-503.00409959059516" y="813.9985918719951" width="60" height="30" as="geometry" />
        </mxCell>
        <mxCell id="domzT1zZ1_tL1zmpYCiZ-163" value="state" style="text;strokeColor=none;align=center;fillColor=none;html=1;verticalAlign=middle;whiteSpace=wrap;rounded=0;fontSize=12;fontFamily=Helvetica;fontColor=default;" vertex="1" parent="1">
          <mxGeometry x="-433.00256112905663" y="813.9985918719951" width="60" height="30" as="geometry" />
        </mxCell>
        <mxCell id="domzT1zZ1_tL1zmpYCiZ-164" value="quantity" style="text;strokeColor=none;align=center;fillColor=none;html=1;verticalAlign=middle;whiteSpace=wrap;rounded=0;fontSize=12;fontFamily=Helvetica;fontColor=default;" vertex="1" parent="1">
          <mxGeometry x="-357.00179189828714" y="813.9985918719951" width="60" height="30" as="geometry" />
        </mxCell>
        <mxCell id="domzT1zZ1_tL1zmpYCiZ-165" value="timestamp" style="text;strokeColor=none;align=center;fillColor=none;html=1;verticalAlign=middle;whiteSpace=wrap;rounded=0;fontSize=12;fontFamily=Helvetica;fontColor=default;" vertex="1" parent="1">
          <mxGeometry x="-277.00409959059516" y="813.9985918719951" width="60" height="30" as="geometry" />
        </mxCell>
        <mxCell id="domzT1zZ1_tL1zmpYCiZ-201" style="edgeStyle=none;shape=connector;curved=1;rounded=0;orthogonalLoop=1;jettySize=auto;html=1;exitX=0;exitY=0;exitDx=0;exitDy=0;entryX=0.5;entryY=1;entryDx=0;entryDy=0;labelBackgroundColor=default;strokeColor=default;fontFamily=Helvetica;fontSize=12;fontColor=default;endArrow=classic;endFill=1;" edge="1" parent="1" source="domzT1zZ1_tL1zmpYCiZ-168" target="domzT1zZ1_tL1zmpYCiZ-142">
          <mxGeometry relative="1" as="geometry" />
        </mxCell>
        <mxCell id="domzT1zZ1_tL1zmpYCiZ-168" value="user_id" style="text;strokeColor=none;align=center;fillColor=none;html=1;verticalAlign=middle;whiteSpace=wrap;rounded=0;fontSize=12;fontFamily=Helvetica;fontColor=default;" vertex="1" parent="1">
          <mxGeometry x="-184.001767108624" y="813.9985918719951" width="60" height="30" as="geometry" />
        </mxCell>
        <mxCell id="domzT1zZ1_tL1zmpYCiZ-169" value="department_id" style="text;strokeColor=none;align=center;fillColor=none;html=1;verticalAlign=middle;whiteSpace=wrap;rounded=0;fontSize=12;fontFamily=Helvetica;fontColor=default;" vertex="1" parent="1">
          <mxGeometry x="-95.00407480093162" y="813.9985918719951" width="60" height="30" as="geometry" />
        </mxCell>
        <mxCell id="domzT1zZ1_tL1zmpYCiZ-151" value="Item" style="text;strokeColor=none;align=center;fillColor=none;html=1;verticalAlign=middle;whiteSpace=wrap;rounded=0;fontSize=12;fontFamily=Helvetica;fontColor=default;" vertex="1" parent="1">
          <mxGeometry x="-755.9994209798178" y="757.9993451605903" width="60" height="30" as="geometry" />
        </mxCell>
        <mxCell id="domzT1zZ1_tL1zmpYCiZ-152" value="item_id" style="text;strokeColor=none;align=center;fillColor=none;html=1;verticalAlign=middle;whiteSpace=wrap;rounded=0;fontSize=12;fontFamily=Helvetica;fontColor=default;fontStyle=5" vertex="1" parent="1">
          <mxGeometry x="-651.9994209798178" y="757.9993451605903" width="60" height="30" as="geometry" />
        </mxCell>
        <mxCell id="domzT1zZ1_tL1zmpYCiZ-153" value="item_name" style="text;strokeColor=none;align=center;fillColor=none;html=1;verticalAlign=middle;whiteSpace=wrap;rounded=0;fontSize=12;fontFamily=Helvetica;fontColor=default;" vertex="1" parent="1">
          <mxGeometry x="-558" y="757.9993451605903" width="60" height="30" as="geometry" />
        </mxCell>
        <mxCell id="domzT1zZ1_tL1zmpYCiZ-154" value="category_id" style="text;strokeColor=none;align=center;fillColor=none;html=1;verticalAlign=middle;whiteSpace=wrap;rounded=0;fontSize=12;fontFamily=Helvetica;fontColor=default;" vertex="1" parent="1">
          <mxGeometry x="-478" y="757.9993451605903" width="93.56" height="30" as="geometry" />
        </mxCell>
        <mxCell id="domzT1zZ1_tL1zmpYCiZ-155" value="items_remaining" style="text;strokeColor=none;align=center;fillColor=none;html=1;verticalAlign=middle;whiteSpace=wrap;rounded=0;fontSize=12;fontFamily=Helvetica;fontColor=default;" vertex="1" parent="1">
          <mxGeometry x="-360" y="757.9993451605903" width="103.88" height="30" as="geometry" />
        </mxCell>
        <mxCell id="domzT1zZ1_tL1zmpYCiZ-156" value="damaged" style="text;strokeColor=none;align=center;fillColor=none;html=1;verticalAlign=middle;whiteSpace=wrap;rounded=0;fontSize=12;fontFamily=Helvetica;fontColor=default;" vertex="1" parent="1">
          <mxGeometry x="-221.00497653537354" y="757.9993451605903" width="60" height="30" as="geometry" />
        </mxCell>
        <mxCell id="domzT1zZ1_tL1zmpYCiZ-157" style="edgeStyle=none;shape=connector;curved=1;rounded=0;orthogonalLoop=1;jettySize=auto;html=1;exitX=0.5;exitY=0;exitDx=0;exitDy=0;labelBackgroundColor=default;strokeColor=default;fontFamily=Helvetica;fontSize=12;fontColor=default;endArrow=none;endFill=0;startSize=8;endSize=8;" edge="1" parent="1" source="domzT1zZ1_tL1zmpYCiZ-155" target="domzT1zZ1_tL1zmpYCiZ-155">
          <mxGeometry relative="1" as="geometry" />
        </mxCell>
        <mxCell id="domzT1zZ1_tL1zmpYCiZ-202" style="edgeStyle=none;shape=connector;curved=1;rounded=0;orthogonalLoop=1;jettySize=auto;html=1;exitX=0.5;exitY=1;exitDx=0;exitDy=0;labelBackgroundColor=default;strokeColor=default;fontFamily=Helvetica;fontSize=12;fontColor=default;endArrow=classic;endFill=1;" edge="1" parent="1" source="domzT1zZ1_tL1zmpYCiZ-170" target="domzT1zZ1_tL1zmpYCiZ-172">
          <mxGeometry relative="1" as="geometry" />
        </mxCell>
        <mxCell id="domzT1zZ1_tL1zmpYCiZ-170" value="brand_id" style="text;strokeColor=none;align=center;fillColor=none;html=1;verticalAlign=middle;whiteSpace=wrap;rounded=0;fontSize=12;fontFamily=Helvetica;fontColor=default;" vertex="1" parent="1">
          <mxGeometry x="-140.00102266751807" y="757.9993451605903" width="60" height="30" as="geometry" />
        </mxCell>
        <mxCell id="domzT1zZ1_tL1zmpYCiZ-171" value="Brand" style="text;strokeColor=none;align=center;fillColor=none;html=1;verticalAlign=middle;whiteSpace=wrap;rounded=0;fontSize=12;fontFamily=Helvetica;fontColor=default;" vertex="1" parent="1">
          <mxGeometry x="-763" y="878" width="60" height="30" as="geometry" />
        </mxCell>
        <mxCell id="domzT1zZ1_tL1zmpYCiZ-172" value="brand_id" style="text;strokeColor=none;align=center;fillColor=none;html=1;verticalAlign=middle;whiteSpace=wrap;rounded=0;fontSize=12;fontFamily=Helvetica;fontColor=default;fontStyle=5" vertex="1" parent="1">
          <mxGeometry x="-662" y="878" width="60" height="30" as="geometry" />
        </mxCell>
        <mxCell id="domzT1zZ1_tL1zmpYCiZ-173" value="brand_name" style="text;strokeColor=none;align=center;fillColor=none;html=1;verticalAlign=middle;whiteSpace=wrap;rounded=0;fontSize=12;fontFamily=Helvetica;fontColor=default;" vertex="1" parent="1">
          <mxGeometry x="-549.0006530761718" y="878" width="60" height="30" as="geometry" />
        </mxCell>
        <mxCell id="domzT1zZ1_tL1zmpYCiZ-174" value="Supplier" style="text;strokeColor=none;align=center;fillColor=none;html=1;verticalAlign=middle;whiteSpace=wrap;rounded=0;fontSize=12;fontFamily=Helvetica;fontColor=default;" vertex="1" parent="1">
          <mxGeometry x="-773.2856380521332" y="931.0042469200722" width="60" height="30" as="geometry" />
        </mxCell>
        <mxCell id="domzT1zZ1_tL1zmpYCiZ-175" value="supplier_id" style="text;strokeColor=none;align=center;fillColor=none;html=1;verticalAlign=middle;whiteSpace=wrap;rounded=0;fontSize=12;fontFamily=Helvetica;fontColor=default;fontStyle=5" vertex="1" parent="1">
          <mxGeometry x="-682.0002534367491" y="931.0042469200722" width="60" height="30" as="geometry" />
        </mxCell>
        <mxCell id="domzT1zZ1_tL1zmpYCiZ-176" value="supplier_name" style="text;strokeColor=none;align=center;fillColor=none;html=1;verticalAlign=middle;whiteSpace=wrap;rounded=0;fontSize=12;fontFamily=Helvetica;fontColor=default;" vertex="1" parent="1">
          <mxGeometry x="-570.2879457444413" y="931.0042469200722" width="60" height="30" as="geometry" />
        </mxCell>
        <mxCell id="domzT1zZ1_tL1zmpYCiZ-177" value="supplier_phone" style="text;strokeColor=none;align=center;fillColor=none;html=1;verticalAlign=middle;whiteSpace=wrap;rounded=0;fontSize=12;fontFamily=Helvetica;fontColor=default;" vertex="1" parent="1">
          <mxGeometry x="-460.2887149752105" y="931.0042469200722" width="60" height="30" as="geometry" />
        </mxCell>
        <mxCell id="domzT1zZ1_tL1zmpYCiZ-178" value="supplier_email" style="text;strokeColor=none;align=center;fillColor=none;html=1;verticalAlign=middle;whiteSpace=wrap;rounded=0;fontSize=12;fontFamily=Helvetica;fontColor=default;" vertex="1" parent="1">
          <mxGeometry x="-354.28999999999996" y="931.0042469200722" width="96" height="30" as="geometry" />
        </mxCell>
        <mxCell id="domzT1zZ1_tL1zmpYCiZ-179" value="supplier_address" style="text;strokeColor=none;align=center;fillColor=none;html=1;verticalAlign=middle;whiteSpace=wrap;rounded=0;fontSize=12;fontFamily=Helvetica;fontColor=default;" vertex="1" parent="1">
          <mxGeometry x="-231.28999999999996" y="931.0042469200722" width="91.29" height="30" as="geometry" />
        </mxCell>
        <mxCell id="domzT1zZ1_tL1zmpYCiZ-181" value="&lt;span style=&quot;font-weight: normal;&quot;&gt;supplier_email&lt;/span&gt;" style="ellipse;whiteSpace=wrap;html=1;fontSize=16;fontStyle=1" vertex="1" parent="1">
          <mxGeometry x="1027" y="431" width="120" height="80" as="geometry" />
        </mxCell>
        <mxCell id="domzT1zZ1_tL1zmpYCiZ-183" value="Category" style="text;strokeColor=none;align=center;fillColor=none;html=1;verticalAlign=middle;whiteSpace=wrap;rounded=0;fontSize=12;fontFamily=Helvetica;fontColor=default;" vertex="1" parent="1">
          <mxGeometry x="-767.0027309006914" y="981.003583608774" width="60" height="30" as="geometry" />
        </mxCell>
        <mxCell id="domzT1zZ1_tL1zmpYCiZ-184" value="category_id" style="text;strokeColor=none;align=center;fillColor=none;html=1;verticalAlign=middle;whiteSpace=wrap;rounded=0;fontSize=12;fontFamily=Helvetica;fontColor=default;fontStyle=5" vertex="1" parent="1">
          <mxGeometry x="-647.0027309006914" y="981.003583608774" width="60" height="30" as="geometry" />
        </mxCell>
        <mxCell id="domzT1zZ1_tL1zmpYCiZ-185" value="category_name" style="text;strokeColor=none;align=center;fillColor=none;html=1;verticalAlign=middle;whiteSpace=wrap;rounded=0;fontSize=12;fontFamily=Helvetica;fontColor=default;" vertex="1" parent="1">
          <mxGeometry x="-550.0796539776143" y="981.003583608774" width="60" height="30" as="geometry" />
        </mxCell>
        <mxCell id="domzT1zZ1_tL1zmpYCiZ-186" value="department" style="text;strokeColor=none;align=center;fillColor=none;html=1;verticalAlign=middle;whiteSpace=wrap;rounded=0;fontSize=12;fontFamily=Helvetica;fontColor=default;" vertex="1" parent="1">
          <mxGeometry x="-766.9967979079029" y="1033.000966421274" width="60" height="30" as="geometry" />
        </mxCell>
        <mxCell id="domzT1zZ1_tL1zmpYCiZ-187" value="department_id" style="text;strokeColor=none;align=center;fillColor=none;html=1;verticalAlign=middle;whiteSpace=wrap;rounded=0;fontSize=12;fontFamily=Helvetica;fontColor=default;fontStyle=5" vertex="1" parent="1">
          <mxGeometry x="-629.5037209848257" y="1032.9963209885818" width="60" height="30" as="geometry" />
        </mxCell>
        <mxCell id="domzT1zZ1_tL1zmpYCiZ-188" value="department_name" style="text;strokeColor=none;align=center;fillColor=none;html=1;verticalAlign=middle;whiteSpace=wrap;rounded=0;fontSize=12;fontFamily=Helvetica;fontColor=default;" vertex="1" parent="1">
          <mxGeometry x="-502.5044902155952" y="1032.9971803635817" width="60" height="30" as="geometry" />
        </mxCell>
        <mxCell id="domzT1zZ1_tL1zmpYCiZ-199" style="edgeStyle=none;curved=1;rounded=0;orthogonalLoop=1;jettySize=auto;html=1;exitX=0.25;exitY=0;exitDx=0;exitDy=0;entryX=0.75;entryY=1;entryDx=0;entryDy=0;labelBackgroundColor=default;strokeColor=default;fontFamily=Helvetica;fontSize=12;fontColor=default;endArrow=classic;endFill=1;" edge="1" parent="1" source="domzT1zZ1_tL1zmpYCiZ-189" target="domzT1zZ1_tL1zmpYCiZ-142">
          <mxGeometry relative="1" as="geometry" />
        </mxCell>
        <mxCell id="domzT1zZ1_tL1zmpYCiZ-189" value="user_id" style="text;strokeColor=none;align=center;fillColor=none;html=1;verticalAlign=middle;whiteSpace=wrap;rounded=0;fontSize=12;fontFamily=Helvetica;fontColor=default;" vertex="1" parent="1">
          <mxGeometry x="-67.0036280581825" y="757.9982992393092" width="60" height="30" as="geometry" />
        </mxCell>
        <mxCell id="domzT1zZ1_tL1zmpYCiZ-190" value="brand_supplier" style="text;strokeColor=none;align=center;fillColor=none;html=1;verticalAlign=middle;whiteSpace=wrap;rounded=0;fontSize=12;fontFamily=Helvetica;fontColor=default;" vertex="1" parent="1">
          <mxGeometry x="-767" y="1085" width="83" height="30" as="geometry" />
        </mxCell>
        <mxCell id="domzT1zZ1_tL1zmpYCiZ-203" style="edgeStyle=none;shape=connector;curved=1;rounded=0;orthogonalLoop=1;jettySize=auto;html=1;exitX=0.5;exitY=0;exitDx=0;exitDy=0;labelBackgroundColor=default;strokeColor=default;fontFamily=Helvetica;fontSize=12;fontColor=default;endArrow=classic;endFill=1;" edge="1" parent="1" source="domzT1zZ1_tL1zmpYCiZ-191" target="domzT1zZ1_tL1zmpYCiZ-172">
          <mxGeometry relative="1" as="geometry" />
        </mxCell>
        <mxCell id="domzT1zZ1_tL1zmpYCiZ-191" value="brand_id" style="text;strokeColor=none;align=center;fillColor=none;html=1;verticalAlign=middle;whiteSpace=wrap;rounded=0;fontSize=12;fontFamily=Helvetica;fontColor=default;fontStyle=4" vertex="1" parent="1">
          <mxGeometry x="-647" y="1085" width="60" height="30" as="geometry" />
        </mxCell>
        <mxCell id="domzT1zZ1_tL1zmpYCiZ-204" style="edgeStyle=none;shape=connector;curved=1;rounded=0;orthogonalLoop=1;jettySize=auto;html=1;exitX=0.5;exitY=0;exitDx=0;exitDy=0;entryX=0.5;entryY=1;entryDx=0;entryDy=0;labelBackgroundColor=default;strokeColor=default;fontFamily=Helvetica;fontSize=12;fontColor=default;endArrow=classic;endFill=1;" edge="1" parent="1" source="domzT1zZ1_tL1zmpYCiZ-192" target="domzT1zZ1_tL1zmpYCiZ-175">
          <mxGeometry relative="1" as="geometry" />
        </mxCell>
        <mxCell id="domzT1zZ1_tL1zmpYCiZ-192" value="supplier_id" style="text;strokeColor=none;align=center;fillColor=none;html=1;verticalAlign=middle;whiteSpace=wrap;rounded=0;fontSize=12;fontFamily=Helvetica;fontColor=default;fontStyle=4" vertex="1" parent="1">
          <mxGeometry x="-538.0002534367491" y="1085" width="60" height="30" as="geometry" />
        </mxCell>
        <mxCell id="domzT1zZ1_tL1zmpYCiZ-141" value="User" style="text;strokeColor=none;align=center;fillColor=none;html=1;verticalAlign=middle;whiteSpace=wrap;rounded=0;fontSize=12;fontFamily=Helvetica;fontColor=default;" vertex="1" parent="1">
          <mxGeometry x="-766.9987097722835" y="692.9961938476563" width="60" height="30" as="geometry" />
        </mxCell>
        <mxCell id="domzT1zZ1_tL1zmpYCiZ-142" value="user_id&amp;nbsp;" style="text;strokeColor=none;align=center;fillColor=none;html=1;verticalAlign=middle;whiteSpace=wrap;rounded=0;fontSize=12;fontFamily=Helvetica;fontColor=default;fontStyle=5" vertex="1" parent="1">
          <mxGeometry x="-652.0005279541018" y="692.9961938476563" width="60" height="30" as="geometry" />
        </mxCell>
        <mxCell id="domzT1zZ1_tL1zmpYCiZ-143" value="username" style="text;strokeColor=none;align=center;fillColor=none;html=1;verticalAlign=middle;whiteSpace=wrap;rounded=0;fontSize=12;fontFamily=Helvetica;fontColor=default;" vertex="1" parent="1">
          <mxGeometry x="-571.9959824995562" y="692.9961938476563" width="60" height="30" as="geometry" />
        </mxCell>
        <mxCell id="domzT1zZ1_tL1zmpYCiZ-144" value="&amp;nbsp;first_name" style="text;strokeColor=none;align=center;fillColor=none;html=1;verticalAlign=middle;whiteSpace=wrap;rounded=0;fontSize=12;fontFamily=Helvetica;fontColor=default;" vertex="1" parent="1">
          <mxGeometry x="-487.0005279541018" y="692.9961938476563" width="60" height="30" as="geometry" />
        </mxCell>
        <mxCell id="domzT1zZ1_tL1zmpYCiZ-146" value="last_name" style="text;strokeColor=none;align=center;fillColor=none;html=1;verticalAlign=middle;whiteSpace=wrap;rounded=0;fontSize=12;fontFamily=Helvetica;fontColor=default;" vertex="1" parent="1">
          <mxGeometry x="-398.003255226829" y="692.9961938476563" width="60" height="30" as="geometry" />
        </mxCell>
        <mxCell id="domzT1zZ1_tL1zmpYCiZ-147" value="phone_number" style="text;strokeColor=none;align=center;fillColor=none;html=1;verticalAlign=middle;whiteSpace=wrap;rounded=0;fontSize=12;fontFamily=Helvetica;fontColor=default;" vertex="1" parent="1">
          <mxGeometry x="-301" y="692.9961938476563" width="100" height="30" as="geometry" />
        </mxCell>
        <mxCell id="domzT1zZ1_tL1zmpYCiZ-148" value="email" style="text;strokeColor=none;align=center;fillColor=none;html=1;verticalAlign=middle;whiteSpace=wrap;rounded=0;fontSize=12;fontFamily=Helvetica;fontColor=default;" vertex="1" parent="1">
          <mxGeometry x="-185.99689159046534" y="692.9961938476563" width="60" height="30" as="geometry" />
        </mxCell>
        <mxCell id="domzT1zZ1_tL1zmpYCiZ-149" value="&amp;nbsp;password" style="text;strokeColor=none;align=center;fillColor=none;html=1;verticalAlign=middle;whiteSpace=wrap;rounded=0;fontSize=12;fontFamily=Helvetica;fontColor=default;" vertex="1" parent="1">
          <mxGeometry x="-111.03325522682906" y="692.9961938476563" width="60" height="30" as="geometry" />
        </mxCell>
        <mxCell id="domzT1zZ1_tL1zmpYCiZ-193" value="timestamp" style="text;strokeColor=none;align=center;fillColor=none;html=1;verticalAlign=middle;whiteSpace=wrap;rounded=0;fontSize=12;fontFamily=Helvetica;fontColor=default;" vertex="1" parent="1">
          <mxGeometry x="10.99590040940484" y="757.9985918719951" width="60" height="30" as="geometry" />
        </mxCell>
        <mxCell id="domzT1zZ1_tL1zmpYCiZ-207" value="1" style="edgeStyle=none;shape=connector;curved=1;rounded=0;orthogonalLoop=1;jettySize=auto;html=1;exitX=0.5;exitY=0;exitDx=0;exitDy=0;labelBackgroundColor=default;strokeColor=default;fontFamily=Helvetica;fontSize=12;fontColor=default;endArrow=none;endFill=0;" edge="1" parent="1" source="domzT1zZ1_tL1zmpYCiZ-205" target="domzT1zZ1_tL1zmpYCiZ-1">
          <mxGeometry relative="1" as="geometry" />
        </mxCell>
        <mxCell id="domzT1zZ1_tL1zmpYCiZ-205" value="has" style="rhombus;whiteSpace=wrap;html=1;fontFamily=Helvetica;fontSize=12;fontColor=default;" vertex="1" parent="1">
          <mxGeometry x="-326" y="-334" width="80" height="80" as="geometry" />
        </mxCell>
        <mxCell id="domzT1zZ1_tL1zmpYCiZ-210" value="employee_id" style="text;strokeColor=#b85450;align=center;fillColor=#f8cecc;html=1;verticalAlign=middle;whiteSpace=wrap;rounded=0;fontSize=12;fontFamily=Helvetica;" vertex="1" parent="1">
          <mxGeometry x="7" y="814" width="80" height="30" as="geometry" />
        </mxCell>
        <mxCell id="domzT1zZ1_tL1zmpYCiZ-211" value="Implement method to keep record about an incident when an item is exchanged from one department to another." style="text;strokeColor=none;align=center;fillColor=none;html=1;verticalAlign=middle;whiteSpace=wrap;rounded=0;fontSize=12;fontFamily=Helvetica;fontColor=default;" vertex="1" parent="1">
          <mxGeometry x="-734" y="1191" width="390" height="30" as="geometry" />
        </mxCell>
        <mxCell id="domzT1zZ1_tL1zmpYCiZ-212" value="write user stories" style="text;strokeColor=none;align=center;fillColor=none;html=1;verticalAlign=middle;whiteSpace=wrap;rounded=0;fontSize=12;fontFamily=Helvetica;fontColor=default;" vertex="1" parent="1">
          <mxGeometry x="-728" y="1246" width="390" height="30" as="geometry" />
        </mxCell>
        <mxCell id="domzT1zZ1_tL1zmpYCiZ-213" value="Received by" style="text;strokeColor=none;align=center;fillColor=none;html=1;verticalAlign=middle;whiteSpace=wrap;rounded=0;fontSize=12;fontFamily=Helvetica;fontColor=default;" vertex="1" parent="1">
          <mxGeometry x="47.5050404866538" y="858.5406561957466" width="60" height="30" as="geometry" />
        </mxCell>
      </root>
    </mxGraphModel>
  </diagram>
</mxfile>
